<svg xmlns="http://www.w3.org/2000/svg" xmlns:xlink="http://www.w3.org/1999/xlink" viewBox="0 0 280 250" preserveAspectRatio="xMidYMid" style="display: block; shape-rendering: auto; background: rgba(253, 253, 253, 0);" width="200" height="200"><style type="text/css">
  .ld-text text {
    text-anchor: middle;
    dominant-baseline: middle;
    font-size: 35px;
    opacity: 0;
    user-select: none;
    pointer-events: none;
  }
</style>
<g style="transform-origin:140px 125px;transform:scale(1)" class="ld-text">
<g transform="translate(140,125)">
  <g transform="scale(0.4375) translate(0,0)"><g class="path" style="opacity: 1; transform-origin: -170.36px 9.35px; transform: matrix3d(1, 0, 0, 0, 0, 1, 0, 0, 0, 0, 1, 0, 0, 0, 0, 1); animation: 1s linear -0.6s infinite normal forwards running animate-jhgqow7b9ji; transform-box: view-box;"><path d="M51.12 43.60L1.60 43.60L1.60 30.48L5.60 30.48L5.60-5.52L1.60-5.52L1.60-18.64L35.36-18.64L35.36-5.52L28-5.52L28 30.48L35.20 30.48L35.20 23.12L51.12 23.12L51.12 43.60" style="fill: rgb(81, 202, 204);" transform="translate(-196.720,-21.800)"></path></g><g class="path" style="opacity: 1; transform-origin: -119.2px 13.58px; transform: matrix3d(1, 0, 0, 0, 0, 1, 0, 0, 0, 0, 1, 0, 0, 0, 0, 1); animation: 1s linear -0.54s infinite normal forwards running animate-jhgqow7b9ji; transform-box: view-box;"><path d="M77.52 44.72Q66.16 44.72 59.76 38.76Q53.36 32.80 53.36 21.36L53.36 21.36Q53.36 9.92 59.76 3.96Q66.16-2 77.52-2L77.52-2Q89.04-2 95.36 4.04Q101.68 10.08 101.68 21.36L101.68 21.36Q101.68 32.80 95.28 38.76Q88.88 44.72 77.52 44.72L77.52 44.72 zM77.52 30.48Q79.84 30.48 81 29.24Q82.16 28 82.16 25.36L82.16 25.36L82.16 17.36Q82.16 14.72 81 13.48Q79.84 12.24 77.52 12.24L77.52 12.24Q75.20 12.24 74.04 13.48Q72.88 14.72 72.88 17.36L72.88 17.36L72.88 25.36Q72.88 28 74.04 29.24Q75.20 30.48 77.52 30.48L77.52 30.48" style="fill: rgb(157, 248, 113);" transform="translate(-196.720,-21.800)"></path></g><g class="path" style="opacity: 1; transform-origin: -69.16px 13.58px; transform: matrix3d(1, 0, 0, 0, 0, 1, 0, 0, 0, 0, 1, 0, 0, 0, 0, 1); animation: 1s linear -0.48s infinite normal forwards running animate-jhgqow7b9ji; transform-box: view-box;"><path d="M147.36 30.48L150.88 30.48L150.88 43.60L129.76 43.60L129.76 38.16Q128 40.72 124.84 42.72Q121.68 44.72 117.12 44.72L117.12 44.72Q111.12 44.72 107.68 41.52Q104.24 38.32 104.24 32.48L104.24 32.48Q104.24 17.36 129.92 16.96L129.92 16.96Q129.68 14.24 127.84 13.24Q126 12.24 121.60 12.24L121.60 12.24Q118 12.24 113.88 13Q109.76 13.76 106.32 15.04L106.32 15.04L106.32 0.32Q110.56-0.72 115.52-1.36Q120.48-2 125.20-2L125.20-2Q137.12-2 142.24 2.32Q147.36 6.64 147.36 15.68L147.36 15.68L147.36 30.48 zM129.76 25.36L129.76 24.88Q126.16 24.88 124.20 25.84Q122.24 26.80 122.24 29.04L122.24 29.04Q122.24 30.40 123.08 31.24Q123.92 32.08 125.44 32.08L125.44 32.08Q127.52 32.08 128.64 30.32Q129.76 28.56 129.76 25.36L129.76 25.36" style="fill: rgb(224, 255, 119);" transform="translate(-196.720,-21.800)"></path></g><g class="path" style="opacity: 1; transform-origin: -18.56px 10.25px; transform: matrix3d(1, 0, 0, 0, 0, 1, 0, 0, 0, 0, 1, 0, 0, 0, 0, 1); animation: 1s linear -0.42s infinite normal forwards running animate-jhgqow7b9ji; transform-box: view-box;"><path d="M169.20 44.72Q161.04 44.72 156.92 38.64Q152.80 32.56 152.80 21.36L152.80 21.36Q152.80 10.16 156.92 4.08Q161.04-2 169.20-2L169.20-2Q173.28-2 176.44-0Q179.60 2 181.60 4.56L181.60 4.56L181.60-5.52L176.88-5.52L176.88-18.64L200-18.64L200 30.48L203.52 30.48L203.52 43.60L181.60 43.60L181.60 38.16Q179.60 40.72 176.44 42.72Q173.28 44.72 169.20 44.72L169.20 44.72 zM176.96 30.48Q179.28 30.48 180.44 29.24Q181.60 28 181.60 25.36L181.60 25.36L181.60 17.36Q181.60 14.72 180.44 13.48Q179.28 12.24 176.96 12.24L176.96 12.24Q174.64 12.24 173.48 13.48Q172.32 14.72 172.32 17.36L172.32 17.36L172.32 25.36Q172.32 28 173.48 29.24Q174.64 30.48 176.96 30.48L176.96 30.48" style="fill: rgb(222, 157, 214);" transform="translate(-196.720,-21.800)"></path></g><g class="path" style="opacity: 1; transform-origin: 21.36px -29.75px; transform: matrix3d(1, 0, 0, 0, 0, 1, 0, 0, 0, 0, 1, 0, 0, 0, 0, 1); animation: 1s linear -0.36s infinite normal forwards running animate-jhgqow7b9ji; transform-box: view-box;"><path d="M226.24-5.28L209.92-5.28L209.92-18.64L226.24-18.64L226.24-5.28" style="fill: rgb(255, 112, 142);" transform="translate(-196.720,-21.800)"></path></g><g class="path" style="opacity: 1; transform-origin: 22.08px 12.9px; transform: matrix3d(1, 0, 0, 0, 0, 1, 0, 0, 0, 0, 1, 0, 0, 0, 0, 1); animation: 1s linear -0.3s infinite normal forwards running animate-jhgqow7b9ji; transform-box: view-box;"><path d="M231.52 43.60L206.08 43.60L206.08 30.48L209.60 30.48L209.60 12.24L206.08 12.24L206.08-0.88L228-0.88L228 30.48L231.52 30.48L231.52 43.60" style="fill: rgb(81, 202, 204);" transform="translate(-196.720,-21.800)"></path></g><g class="path" style="opacity: 1; transform-origin: 63.6px 12.68px; transform: matrix3d(1, 0, 0, 0, 0, 1, 0, 0, 0, 0, 1, 0, 0, 0, 0, 1); animation: 1s linear -0.24s infinite normal forwards running animate-jhgqow7b9ji; transform-box: view-box;"><path d="M283.36 30.48L286.88 30.48L286.88 43.60L261.60 43.60L261.60 30.48L264.96 30.48L264.96 17.36Q264.96 14.72 263.84 13.48Q262.72 12.24 260.48 12.24L260.48 12.24Q255.68 12.24 255.68 17.36L255.68 17.36L255.68 30.48L259.04 30.48L259.04 43.60L233.76 43.60L233.76 30.48L237.28 30.48L237.28 12.24L233.76 12.24L233.76-0.88L255.68-0.88L255.68 5.36Q261.44-2 270.08-2L270.08-2Q276.72-2 280.04 2.16Q283.36 6.32 283.36 13.60L283.36 13.60L283.36 30.48" style="fill: rgb(157, 248, 113);" transform="translate(-196.720,-21.800)"></path></g><g class="path" style="opacity: 1; transform-origin: 117.44px 27.78px; transform: matrix3d(1, 0, 0, 0, 0, 1, 0, 0, 0, 0, 1, 0, 0, 0, 0, 1); animation: 1s linear -0.18s infinite normal forwards running animate-jhgqow7b9ji; transform-box: view-box;"><path d="M312.88 62.48Q307.12 62.48 301.88 61.68Q296.64 60.88 293.76 59.84L293.76 59.84L293.76 46.72Q302.24 48.24 308.96 48.24L308.96 48.24Q313.52 48.24 315.56 46.84Q317.60 45.44 317.60 41.60L317.60 41.60L317.60 38.16Q315.60 40.72 312.44 42.72Q309.28 44.72 305.20 44.72L305.20 44.72Q297.04 44.72 292.92 38.64Q288.80 32.56 288.80 21.36L288.80 21.36Q288.80 10.16 292.92 4.08Q297.04-2 305.20-2L305.20-2Q309.28-2 312.44-0Q315.60 2 317.60 4.56L317.60 4.56L317.60-0.88L339.52-0.88L339.52 12.24L336 12.24L336 40.40Q336 52 330.24 57.24Q324.48 62.48 312.88 62.48L312.88 62.48 zM312.96 30.48Q315.28 30.48 316.44 29.24Q317.60 28 317.60 25.36L317.60 25.36L317.60 17.36Q317.60 14.72 316.44 13.48Q315.28 12.24 312.96 12.24L312.96 12.24Q310.64 12.24 309.48 13.48Q308.32 14.72 308.32 17.36L308.32 17.36L308.32 25.36Q308.32 28 309.48 29.24Q310.64 30.48 312.96 30.48L312.96 30.48" style="fill: rgb(224, 255, 119);" transform="translate(-196.720,-21.800)"></path></g><g class="path" style="opacity: 1; transform-origin: 153.04px 19.18px; transform: matrix3d(1, 0, 0, 0, 0, 1, 0, 0, 0, 0, 1, 0, 0, 0, 0, 1); animation: 1s linear -0.12s infinite normal forwards running animate-jhgqow7b9ji; transform-box: view-box;"><path d="M356 43.60L343.52 43.60L343.52 30.48L356 30.48L356 43.60" style="fill: rgb(222, 157, 214);" transform="translate(-196.720,-21.800)"></path></g><g class="path" style="opacity: 1; transform-origin: 172.56px 19.18px; transform: matrix3d(1, 0, 0, 0, 0, 1, 0, 0, 0, 0, 1, 0, 0, 0, 0, 1); animation: 1s linear -0.06s infinite normal forwards running animate-jhgqow7b9ji; transform-box: view-box;"><path d="M375.52 43.60L363.04 43.60L363.04 30.48L375.52 30.48L375.52 43.60" style="fill: rgb(255, 112, 142);" transform="translate(-196.720,-21.800)"></path></g><g class="path" style="opacity: 1; transform-origin: 192.08px 19.18px; transform: matrix3d(1, 0, 0, 0, 0, 1, 0, 0, 0, 0, 1, 0, 0, 0, 0, 1); animation: 1s linear 0s infinite normal forwards running animate-jhgqow7b9ji; transform-box: view-box;"><path d="M395.04 43.60L382.56 43.60L382.56 30.48L395.04 30.48L395.04 43.60" style="fill: rgb(81, 202, 204);" transform="translate(-196.720,-21.800)"></path></g></g><text dy="0.35em" fill="#51cacc" font-family="Alfa Slab One" font-size="35">Loading...</text>
</g>
</g><style type="text/css">@keyframes animate-jhgqow7b9ji { 0.00% {transform: translate(0.00px,0.00px) rotate(0.00deg) scale(1.00, 1.00) skew(0deg, 0.00deg) ;opacity: 1.00;}2.00% {animation-timing-function: cubic-bezier(0.20,0.39,0.50,0.97);transform: translate(0.00px,-1.08px) rotate(0.00deg) ;}36.00% {animation-timing-function: cubic-bezier(0.50,0.03,0.80,0.61);transform: translate(0.00px,-10.00px) rotate(0.00deg) ;}72.00% {transform: translate(0.00px,-0.12px) rotate(0.00deg) ;}74.00% {animation-timing-function: cubic-bezier(0.24,0.43,0.48,0.91);transform: translate(0.00px,0.00px) rotate(0.00deg) scale(1.00, 0.95) ;}86.00% {animation-timing-function: cubic-bezier(0.53,0.08,0.77,0.57);transform: translate(0.00px,0.00px) rotate(0.00deg) scale(1.00, 0.80) ;}100.00% {animation-timing-function: cubic-bezier(0.53,0.08,0.77,0.57);transform: translate(0.00px,0.00px) rotate(0.00deg) scale(1.00, 1.00) ;} }</style><!-- [ldio] generated by https://loading.io --></svg>